<svg width="16" height="18" viewBox="0 0 16 18" fill="none" xmlns="http://www.w3.org/2000/svg">
<path d="M5.61909 16.0759C6.48042 16.0759 6.85819 15.4941 7.93108 15.4941C9.00396 15.4941 9.26085 16.0538 10.2128 16.0538C11.1648 16.0538 11.7768 15.1848 12.3737 14.3305C13.0386 13.3511 13.3106 12.3937 13.3333 12.3495C13.2728 12.3348 11.4746 11.5909 11.4746 9.52152C11.4746 7.72458 12.895 6.91449 12.9706 6.85557C12.0337 5.5005 10.6057 5.47105 10.2204 5.47105C9.17018 5.47105 8.30885 6.11176 7.76485 6.11176C7.18308 6.11176 6.41242 5.50787 5.4982 5.50787C3.76043 5.50787 2 6.95131 2 9.66881C2 11.3553 2.65733 13.1449 3.45821 14.3011C4.14577 15.2806 4.75021 16.0833 5.61909 16.0833V16.0759ZM7.83285 5.30903C8.45996 5.30903 9.25329 4.88189 9.72173 4.31482C10.1448 3.7993 10.4546 3.07758 10.4546 2.35586C10.4546 2.26012 10.4471 2.15702 10.4244 2.08337C9.72173 2.11283 8.88307 2.5547 8.37685 3.15123C7.97641 3.60783 7.61375 4.31482 7.61375 5.0439C7.61375 5.14701 7.62886 5.25748 7.64397 5.2943C7.6893 5.30166 7.7573 5.30903 7.83285 5.30903Z" fill="black"/>
</svg>
