<svg width="16" height="17" viewBox="0 0 16 17" fill="none" xmlns="http://www.w3.org/2000/svg">
<path fill-rule="evenodd" clip-rule="evenodd" d="M14.3359 8.90036C14.3359 8.43249 14.2941 7.98223 14.2156 7.55029H7.99994V10.103H11.5522C11.3989 10.928 10.934 11.6276 10.2351 12.0955V13.7514H12.3677C13.6158 12.6022 14.3359 10.9104 14.3359 8.90036Z" fill="#4772FF"/>
<path fill-rule="evenodd" clip-rule="evenodd" d="M8.00008 15.3503C9.78207 15.3503 11.2759 14.7592 12.3678 13.7516L10.2353 12.095C9.6442 12.491 8.88814 12.7249 8.00008 12.7249C6.28115 12.7249 4.82622 11.5641 4.30702 10.0043H2.1019V11.7144C3.18796 13.8711 5.42022 15.3503 8.00008 15.3503Z" fill="#31A752"/>
<path fill-rule="evenodd" clip-rule="evenodd" d="M4.30685 10.0043C4.17486 9.60827 4.10006 9.18513 4.10006 8.75027C4.10006 8.3154 4.17486 7.89227 4.30685 7.49627V5.78613H2.10173C1.65513 6.67713 1.39993 7.68547 1.39993 8.75027C1.39993 9.81507 1.65513 10.8234 2.10173 11.7144L4.30685 10.0043Z" fill="#F9BA00"/>
<path fill-rule="evenodd" clip-rule="evenodd" d="M8.00008 4.77536C8.96881 4.77536 9.83927 5.10829 10.5227 5.76242L12.4162 3.86969C11.2729 2.80416 9.77914 2.15002 8.00008 2.15002C5.42022 2.15002 3.18796 3.62916 2.1019 5.78662L4.30702 7.49602C4.82622 5.93622 6.28115 4.77536 8.00008 4.77536Z" fill="#E64234"/>
</svg>
