<svg width="65" height="24" viewBox="0 0 65 24" fill="none" xmlns="http://www.w3.org/2000/svg">
<path d="M21.4824 0L22 5.46298L9.20458 17.5242L20.2021 16.2087L19.2736 21.757L0.523841 24L0 18.4708L12.7142 6.486L1.78638 7.79344L2.71486 2.24517L21.4824 0Z" fill="#5650FF"/>
<path d="M37.6143 6.08778C38.153 6.04106 39.4028 5.97098 40.5879 5.90091C40.5879 3.68176 40.6095 1.83637 40.631 1.20566C41.2128 1.08887 43.0875 0.948708 43.8417 1.01879C43.8848 3.5416 43.9063 13.773 43.8417 16.0856C43.1737 16.2258 41.3852 16.2958 40.631 16.2725C40.6095 15.3148 40.5879 12.3014 40.5879 9.19458C39.4243 9.26466 38.1746 9.31138 37.6143 9.31138C37.5497 8.42372 37.5497 6.97544 37.6143 6.08778ZM37.1834 14.614C35.5457 13.6329 33.865 12.535 32.2704 11.367C30.8052 12.7452 29.2322 14.1001 27.81 15.2447C27.2713 14.8476 26.3232 13.5862 26 12.9087C27.5299 11.6006 29.0383 10.2458 30.5251 8.91427V5.24684C28.6935 5.36364 27.0989 5.43372 26.4525 5.43372C26.3663 4.49934 26.3663 3.26129 26.4525 2.42035C28.1979 2.2802 34.0374 1.88309 37.8944 1.76629C37.9591 2.65395 37.9591 3.96207 37.8944 4.77965C37.0972 4.84973 35.5888 4.94317 33.9081 5.03661V8.70404C35.5457 9.75521 37.0972 10.7597 38.8425 11.951C38.5624 12.6518 37.7005 14.03 37.1834 14.614ZM44.208 19.0756C44.2942 19.8932 44.2942 21.2247 44.208 22.1123C42.4841 22.3226 30.3311 23 28.3703 23C28.2625 21.2714 28.3056 17.5105 28.3703 16.1323C29.0383 16.0155 30.8052 15.9221 31.5809 15.9455C31.624 17.1134 31.624 18.515 31.5809 19.7764C36.343 19.4961 42.5919 19.099 44.208 19.0756Z" fill="#5650FF"/>
<path d="M64.9354 8.70404C65.0215 9.59169 65.0215 11.1334 64.9354 12.0211C64.5906 12.0912 63.9226 12.1379 63.0176 12.2079C63.0176 16.5528 62.996 20.7575 62.9529 22.089C62.285 22.2058 60.4749 22.2992 59.7208 22.2759C59.6346 19.5662 59.6561 3.96207 59.7208 1.25238C60.3026 1.06551 62.1988 0.995428 62.9529 1.06551C62.996 2.30356 63.0176 5.36364 63.0176 8.77411C63.8149 8.7274 64.4613 8.7274 64.9354 8.70404ZM56.6825 17.8142L58.6003 17.7441C58.6649 18.6551 58.6649 19.683 58.6003 20.7575C55.8206 21.0144 48.5159 21.4349 45.9732 21.4816C45.9086 20.5239 45.9086 19.3793 45.9732 18.4683C46.4473 18.4216 47.0722 18.3748 47.8263 18.3281C47.8048 14.614 47.7832 9.2413 47.8263 5.62059C47.1583 5.66731 46.5981 5.66731 46.1456 5.69067C46.081 4.77965 46.081 3.5416 46.1456 2.67731C49.7225 2.39699 56.4239 1.99988 58.4279 1.97652C58.471 2.84082 58.471 3.96207 58.4279 4.98989C57.9538 5.03661 57.3505 5.08333 56.6825 5.13004C56.7256 8.75075 56.7041 14.1234 56.6825 17.8142ZM50.9508 5.48044C50.9723 9.07779 50.9723 14.4271 50.9508 18.1179L53.5581 17.9777C53.5365 14.2869 53.5365 8.91427 53.5581 5.31692C52.6962 5.36364 51.8127 5.43372 50.9508 5.48044Z" fill="#5650FF"/>
</svg>
