<svg width="319" height="110" viewBox="0 0 319 110" fill="none" xmlns="http://www.w3.org/2000/svg">
<path d="M26.4578 10.9891C27.685 10.8913 30.5321 10.7445 33.2318 10.5978C33.2318 5.95138 33.2809 2.0875 33.33 0.766939C34.6554 0.52239 38.9259 0.228929 40.644 0.37566C40.7421 5.65792 40.7912 27.0804 40.644 31.9225C39.1223 32.2159 35.0481 32.3627 33.33 32.3138C33.2809 30.3085 33.2318 23.9991 33.2318 17.4941C30.5811 17.6408 27.7341 17.7386 26.4578 17.7386C26.3106 15.8801 26.3106 12.8477 26.4578 10.9891ZM25.4761 28.8412C21.7455 26.787 17.9167 24.4882 14.2843 22.0427C10.9464 24.9284 7.36304 27.7652 4.1233 30.1617C2.89613 29.3303 0.736303 26.6891 0 25.2708C3.48517 22.5318 6.92125 19.695 10.3082 16.9072V9.22834C6.13586 9.47288 2.50343 9.61961 1.03083 9.61961C0.834477 7.66322 0.834477 5.071 1.03083 3.31025C5.00686 3.01679 18.3094 2.18532 27.096 1.94077C27.2432 3.79935 27.2432 6.5383 27.096 8.25014C25.2798 8.39687 21.8437 8.59251 18.0149 8.78815V16.467C21.7455 18.6679 25.2798 20.7711 29.2558 23.2655C28.6177 24.7327 26.6542 27.6184 25.4761 28.8412ZM41.4784 38.1829C41.6748 39.8948 41.6748 42.6826 41.4784 44.5412C37.5515 44.9814 9.86647 46.3998 5.39956 46.3998C5.15412 42.7805 5.2523 34.906 5.39956 32.0203C6.92125 31.7758 10.9464 31.5801 12.7135 31.629C12.8117 34.0745 12.8117 37.0091 12.7135 39.6502C23.5617 39.0633 37.7969 38.2319 41.4784 38.1829Z" fill="black"/>
<path d="M87.8126 16.467C88.009 18.3256 88.009 21.5536 87.8126 23.4122C87.0272 23.5589 85.5055 23.7056 83.4439 23.8035C83.4439 32.9007 83.3948 41.7045 83.2966 44.4923C81.7749 44.7858 77.6516 44.9325 75.9336 44.8836C75.7373 39.2101 75.7863 6.5383 75.9336 0.864757C77.2589 0.52239 81.5786 0.32675 83.2966 0.473481C83.3948 3.0657 83.4439 9.47288 83.4439 16.6137C85.2601 16.5159 86.7327 16.5159 87.8126 16.467ZM62.8274 9.5218C62.8765 12.8966 62.9256 17.543 62.8765 21.4558C66.8034 26.8359 71.4667 33.292 74.1665 37.3026C72.8411 39.1122 70.8286 40.7263 68.6197 41.7044C65.4781 37.6449 62.2874 33.0474 59.0477 28.1564C55.808 34.2702 52.3228 40.4817 50.4084 43.6119C48.6904 43.2696 45.5488 41.6066 44.3216 40.4328C46.776 35.982 50.7029 28.9879 54.9735 21.6025C54.9244 17.6897 54.9735 13.19 55.0226 9.96198C50.752 10.2065 47.0214 10.3533 45.5979 10.3533C45.4015 8.39687 45.4015 5.60901 45.5979 3.84826C49.5739 3.50589 63.4164 2.72333 72.203 2.42987C72.3503 4.28844 72.3503 7.22303 72.203 8.93488C70.3868 9.08161 66.8034 9.27725 62.8274 9.5218Z" fill="black"/>
<path d="M122.513 44.7858C122.317 39.1122 122.366 6.44048 122.513 0.766939C123.839 0.37566 128.158 0.228929 129.876 0.37566C130.073 7.0763 130.073 38.5742 129.876 44.3945C128.355 44.688 124.231 44.8347 122.513 44.7858ZM106.756 42.3403C106.756 38.721 106.805 13.2389 106.756 9.66852C103.713 9.91307 93.5029 10.4511 89.7723 10.5489C89.5759 8.64142 89.5759 5.65792 89.7723 3.84826C93.6992 3.45698 109.751 2.52769 114.07 2.5766C114.414 8.20123 114.512 36.2266 114.218 41.949C112.941 42.2425 108.523 42.4381 106.756 42.3403Z" fill="black"/>
<path d="M166.884 44.7858C166.688 39.1122 166.737 6.44048 166.884 0.766939C168.209 0.37566 172.529 0.228929 174.247 0.37566C174.443 7.0763 174.443 38.5742 174.247 44.3945C172.725 44.688 168.602 44.8347 166.884 44.7858ZM151.127 42.3403C151.127 38.721 151.176 13.2389 151.127 9.66852C148.084 9.91307 137.874 10.4511 134.143 10.5489C133.947 8.64142 133.947 5.65792 134.143 3.84826C138.07 3.45698 154.121 2.52769 158.441 2.5766C158.785 8.20123 158.883 36.2266 158.588 41.949C157.312 42.2425 152.894 42.4381 151.127 42.3403Z" fill="black"/>
<path d="M228.139 0.37566C228.335 7.0763 228.335 38.5742 228.139 44.3945C226.617 44.688 222.494 44.8347 220.776 44.7858C220.677 41.9979 220.628 32.6072 220.628 23.1676C218.419 23.2655 216.161 23.3633 214.149 23.4122C213.953 21.5536 213.953 18.1788 214.149 16.3203C216.505 16.1246 218.665 15.9779 220.677 15.8801C220.677 8.93488 220.727 2.91897 220.776 0.766939C222.101 0.37566 226.421 0.228929 228.139 0.37566ZM188.035 3.84826C191.962 3.45698 206.933 2.62551 211.253 2.62551C211.596 8.29905 211.695 36.2755 211.4 41.9979C210.124 42.2914 205.706 42.487 203.939 42.3892C203.939 38.7699 203.988 13.2879 203.939 9.71743C200.895 9.96198 191.765 10.4511 188.035 10.5489C187.838 8.64142 187.838 5.65792 188.035 3.84826Z" fill="black"/>
<path d="M273.049 0.32675C273.148 6.44048 273.148 38.4275 273.049 44.3456C271.724 44.639 267.748 44.7369 266.03 44.7369C265.981 41.9001 265.981 32.9007 265.981 23.7546L262.888 23.9013C262.888 32.9007 262.839 41.6555 262.839 44.4434C261.514 44.688 257.538 44.8836 255.82 44.8347C255.624 38.9166 255.673 6.63612 255.82 1.50059C257.145 1.10931 261.367 0.962578 262.839 1.10931C262.888 3.5548 262.937 9.91307 262.937 17.1028L265.981 16.9561C265.981 9.42398 266.03 2.77224 266.03 0.71803C267.355 0.32675 271.577 0.131111 273.049 0.32675ZM239.719 36.2755C242.468 36.0309 251.402 35.5418 253.562 35.5418C253.758 37.4004 253.758 40.2372 253.562 42.0957C250.518 42.3892 236.136 43.2207 232.651 43.1717C232.307 37.4493 232.356 25.9066 232.651 20.233C235.989 19.9885 241.781 19.7439 244.481 19.6461C244.481 16.9072 244.481 12.2118 244.53 9.76635C235.547 10.3044 241.879 10.0109 232.847 10.3533C232.651 8.49469 232.651 5.65792 232.847 3.79935C235.891 3.50589 248.751 2.77224 251.598 2.82115C251.942 8.5436 251.893 20.1352 251.598 25.7599C249.291 26.0533 242.125 26.2979 239.768 26.3957C239.768 29.1346 239.768 33.83 239.719 36.2755Z" fill="black"/>
<path d="M279.329 18.1788C279.083 14.0215 279.132 6.0492 279.329 2.72333C280.85 2.47878 285.072 2.28314 286.839 2.33205C286.986 5.26664 286.937 8.25014 286.839 11.4293C291.846 10.9891 311.481 10.0109 315.162 9.96198C315.358 11.8206 315.358 14.4617 315.162 16.3203C311.235 16.7115 283.796 18.1299 279.329 18.1788ZM276.138 28.401C275.942 26.787 275.942 23.9502 276.138 22.0916C286.348 21.4069 313.739 20.0374 318.353 19.8907C318.549 21.6025 318.549 24.2926 318.353 26.2C314.131 26.7381 281.93 28.3032 276.138 28.401ZM278.838 46.5465C278.592 42.9272 278.69 34.2213 278.838 31.3356C280.359 31.091 284.581 30.8465 286.348 30.9443C286.446 33.3409 286.446 37.596 286.348 39.797C297.196 39.1611 312.953 38.2808 316.635 38.1829C316.831 39.9437 316.831 42.7316 316.635 44.5412C312.708 44.9814 283.305 46.5465 278.838 46.5465Z" fill="black"/>
<path d="M26.4578 72.1264C27.685 72.0285 30.5321 71.8818 33.2318 71.7351C33.2318 67.0886 33.2809 63.2248 33.33 61.9042C34.6554 61.6597 38.9259 61.3662 40.644 61.5129C40.7421 66.7952 40.7912 88.2177 40.644 93.0597C39.1223 93.3532 35.0481 93.4999 33.33 93.451C33.2809 91.4457 33.2318 85.1364 33.2318 78.6314C30.5811 78.7781 27.7341 78.8759 26.4578 78.8759C26.3106 77.0173 26.3106 73.9849 26.4578 72.1264ZM25.4761 89.9784C21.7455 87.9242 17.9167 85.6255 14.2843 83.18C10.9464 86.0657 7.36304 88.9024 4.1233 91.299C2.89613 90.4675 0.736303 87.8264 0 86.408C3.48517 83.6691 6.92125 80.8323 10.3082 78.0444V70.3656C6.13586 70.6102 2.50343 70.7569 1.03083 70.7569C0.834477 68.8005 0.834477 66.2083 1.03083 64.4475C5.00686 64.1541 18.3094 63.3226 27.096 63.078C27.2432 64.9366 27.2432 67.6756 27.096 69.3874C25.2798 69.5341 21.8437 69.7298 18.0149 69.9254V77.6042C21.7455 79.8052 25.2798 81.9083 29.2558 84.4027C28.6177 85.87 26.6542 88.7557 25.4761 89.9784ZM41.4784 99.3202C41.6748 101.032 41.6748 103.82 41.4784 105.678C37.5515 106.119 9.86647 107.537 5.39956 107.537C5.15412 103.918 5.2523 96.0433 5.39956 93.1576C6.92125 92.913 10.9464 92.7174 12.7135 92.7663C12.8117 95.2118 12.8117 98.1464 12.7135 100.788C23.5617 100.201 37.7969 99.3691 41.4784 99.3202Z" fill="#5650FF"/>
<path d="M88.3035 77.6042C88.4999 79.4628 88.4999 82.6909 88.3035 84.5494C87.5181 84.6962 85.9964 84.794 83.9348 84.9407C83.9348 94.038 83.8857 102.842 83.7875 105.63C82.2658 105.874 78.1425 106.07 76.4245 106.021C76.2281 100.347 76.2772 67.6756 76.4245 62.002C77.7498 61.6107 82.0695 61.464 83.7875 61.6107C83.8857 64.203 83.9348 70.6102 83.9348 77.751C85.751 77.6532 87.2236 77.6532 88.3035 77.6042ZM69.5032 96.6791L73.872 96.5324C74.0192 98.4398 74.0192 100.592 73.872 102.842C67.5397 103.38 50.8993 104.26 45.107 104.358C44.9598 102.353 44.9598 99.956 45.107 98.0486C46.1869 97.9507 47.6105 97.8529 49.3285 97.7551C49.2794 89.9784 49.2303 78.7292 49.3285 71.1482C47.8068 71.246 46.5305 71.246 45.4997 71.2949C45.3525 69.3874 45.3525 66.7952 45.4997 64.9855C53.6481 64.3986 68.9142 63.5671 73.4793 63.5182C73.5774 65.3279 73.5774 67.6756 73.4793 69.8276C72.3993 69.9254 71.0249 70.0232 69.5032 70.121C69.6014 77.7021 69.5523 88.9513 69.5032 96.6791ZM56.4461 70.8547C56.4952 78.3868 56.4952 89.5872 56.4461 97.3149L62.3856 97.0214C62.3365 89.2937 62.3365 78.0444 62.3856 70.5123C60.4221 70.6101 58.4096 70.7569 56.4461 70.8547Z" fill="#5650FF"/>
<path d="M130.416 61.464C130.514 67.5777 130.514 99.5648 130.416 105.483C129.091 105.776 125.115 105.874 123.397 105.874C123.299 99.956 123.348 66.9908 123.397 61.8553C124.722 61.464 128.944 61.2684 130.416 61.464ZM113.923 62.5889C115.248 62.2466 119.47 62.0509 120.942 62.1977C121.09 68.3603 120.992 99.7115 120.942 105.532C119.617 105.776 115.641 105.972 113.923 105.923C113.825 103.135 113.776 94.527 113.776 85.6744L110.732 85.8211C110.438 100.152 107.247 104.602 99.8351 104.994C92.0303 105.385 88.8887 100.885 88.8887 84.7451C88.8887 68.6049 92.0303 63.7139 99.8351 63.3226C106.855 62.9802 110.045 66.5506 110.634 78.9737C111.616 78.9248 112.696 78.827 113.825 78.827C113.825 71.2949 113.874 64.6921 113.923 62.5889ZM99.8351 98.1464C102.731 97.9996 103.418 95.9943 103.418 83.9625C103.418 71.9307 102.731 70.0232 99.8351 70.17C96.939 70.3167 96.2027 72.322 96.2027 84.3538C96.2027 96.3856 96.939 98.2931 99.8351 98.1464Z" fill="#5650FF"/>
<path d="M174.247 61.5129C174.443 68.2136 174.443 99.7115 174.247 105.532C172.725 105.825 168.602 105.972 166.884 105.923C166.786 103.037 166.737 93.0598 166.737 83.2778C163.546 83.4245 160.012 83.5712 157.754 83.6202C157.557 81.7616 157.557 78.5335 157.754 76.675C160.454 76.4304 163.841 76.2348 166.786 76.088C166.786 69.5341 166.835 63.9584 166.884 61.9042C168.209 61.5129 172.529 61.3662 174.247 61.5129ZM151.422 63.8606C151.52 66.5995 151.569 74.5229 151.52 80.4899C155.349 86.4569 160.797 94.6249 163.301 98.8311C162.123 100.249 158.883 102.597 157.508 103.135C155.692 100.69 151.323 93.989 147.642 87.8264C144.549 94.576 140.917 101.912 139.248 104.749C137.825 104.505 134.241 102.988 133.014 101.766C135.321 97.0704 140.279 87.0928 143.617 80.3921C143.568 74.2295 143.617 66.5995 143.715 64.3008C145.04 63.9584 149.704 63.665 151.422 63.8606Z" fill="#5650FF"/>
<path d="M178.416 109.738C178.268 107.293 178.317 100.396 178.416 98.1464C179.986 97.8529 184.699 97.6084 186.073 97.7551C186.024 100.69 185.533 106.314 185.091 109.396C183.619 109.689 179.888 109.787 178.416 109.738Z" fill="#5650FF"/>
</svg>
